# xmcd
#
# Track frame offsets: 
#        182
#        13547
#        30835
#        59242
#        76500
#        89120
#        99915
#        112742
#        124625
#        140152
#        156870
#        171547
#        188112
#        205255
#        218327
#        230545
#        248077
#        266512
#        281665
#        297007
#        312877
#
# Disc length: 4518 seconds
#
# Revision: 6
# Processed by: cddbd v1.5.2PL0 Copyright (c) Steve Scherf et al.
# Submitted via: ExactAudioCopy v0.99pb5
#
DISCID=2011a415
DTITLE=Bobby Womack - Midnight Mover: The Bobby Womack Collection (Dis
DTITLE=c 2)
DYEAR=1993
DGENRE=EMI Records
TTITLE0=Nobody Wants You When You're Down And Out
TTITLE1=Across 110th Street
TTITLE2=Fact Of Life/He'll Be There When The Sun Goes Down
TTITLE3=I'm Through Trying To Prove My Love To You
TTITLE4=If You Can't Give Her Love, Give Her Up
TTITLE5=Holdin' On To My Baby's Love
TTITLE6=That's Heaven To Me
TTITLE7=Lookin' For A Love
TTITLE8=I Don't Wanna Be Hurt By Ya Again
TTITLE9=You're Welcome, Stop On By
TTITLE10=Interlude #1/I Don't Know
TTITLE11=(If You Want My Love) Put Something Down On It
TTITLE12=Check It Out
TTITLE13=It's All Over Now
TTITLE14=Tarnished Rings
TTITLE15=Trust In Me
TTITLE16=Everything's Gonna Be Alright
TTITLE17=Where There's A Will, There's A Way
TTITLE18=Love Ain't Something You Can Get For Free
TTITLE19=Daylight
TTITLE20=Jealous Love
EXTD=
EXTT0=
EXTT1=
EXTT2=
EXTT3=
EXTT4=
EXTT5=
EXTT6=
EXTT7=
EXTT8=
EXTT9=
EXTT10=
EXTT11=
EXTT12=
EXTT13=
EXTT14=
EXTT15=
EXTT16=
EXTT17=
EXTT18=
EXTT19=
EXTT20=
PLAYORDER=
